<svg xmlns="http://www.w3.org/2000/svg" viewBox="0 0 286 73.27"><defs><style>.cls-1{fill:#fff;}</style></defs><title>Asset 4</title><g id="Layer_2" data-name="Layer 2"><g id="Layer_1-2" data-name="Layer 1"><path d="M249.37,73.27H36.63A36.74,36.74,0,0,1,0,36.63H0A36.74,36.74,0,0,1,36.63,0H249.37A36.75,36.75,0,0,1,286,36.63h0A36.75,36.75,0,0,1,249.37,73.27Z"/><path class="cls-1" d="M86.65,20.38l-1.74,5.25H82.68l5.68-16.7H91l5.69,16.7h-2.3l-1.78-5.25Zm5.47-1.69-1.66-4.8c-.35-1.1-.59-2.09-.84-3.05h-.07c-.23,1-.5,2-.82,3l-1.64,4.83Z"/><path class="cls-1" d="M98.89,13.64l2.35,6.71c.4,1.11.72,2.11,1,3.1h.07c.27-1,.62-2,1-3.1l2.33-6.71h2.28l-4.71,12h-2.08l-4.56-12Z"/><path class="cls-1" d="M117.94,22.76a20.71,20.71,0,0,0,.17,2.87h-2l-.2-1.51h-.08a4.41,4.41,0,0,1-3.66,1.78,3.42,3.42,0,0,1-3.67-3.44c0-2.9,2.58-4.49,7.21-4.46v-.25A2.46,2.46,0,0,0,113,15a5.75,5.75,0,0,0-3.14.89l-.5-1.47a7.85,7.85,0,0,1,4-1c3.69,0,4.58,2.51,4.58,4.91v4.49Zm-2.13-3.25c-2.38-.05-5.08.37-5.08,2.7a1.91,1.91,0,0,0,2,2.08,3,3,0,0,0,2.95-2,2.35,2.35,0,0,0,.1-.69V19.51Z"/><path class="cls-1" d="M122.35,11.43a1.4,1.4,0,0,1,.05-2.8A1.34,1.34,0,0,1,123.78,10a1.36,1.36,0,0,1-1.41,1.41Zm-1,14.2v-12h2.18v12Z"/><path class="cls-1" d="M127,8h2.18V25.63H127Z"/><path class="cls-1" d="M141.1,22.76a19.18,19.18,0,0,0,.18,2.87h-2l-.2-1.51h-.07a4.45,4.45,0,0,1-3.67,1.78,3.42,3.42,0,0,1-3.67-3.44c0-2.9,2.58-4.49,7.21-4.46v-.25A2.46,2.46,0,0,0,136.2,15a5.78,5.78,0,0,0-3.15.89l-.5-1.47a7.91,7.91,0,0,1,4-1c3.69,0,4.58,2.51,4.58,4.91v4.49ZM139,19.51c-2.38-.05-5.08.37-5.08,2.7a1.91,1.91,0,0,0,2,2.08,3,3,0,0,0,3-2,2.06,2.06,0,0,0,.1-.69V19.51Z"/><path class="cls-1" d="M144.47,8h2.18v7.51h0a4.44,4.44,0,0,1,4.08-2.18c3,0,5.06,2.47,5.06,6.09,0,4.31-2.73,6.44-5.4,6.44a4.29,4.29,0,0,1-4-2.25h-.05l-.13,2h-1.88c.08-.82.1-2,.1-3.1Zm2.18,12.78A3.28,3.28,0,0,0,150,24.17c2.31,0,3.65-1.86,3.65-4.61,0-2.43-1.24-4.48-3.57-4.48a3.45,3.45,0,0,0-3.3,2.67,3.6,3.6,0,0,0-.12.92Z"/><path class="cls-1" d="M158.44,8h2.18V25.63h-2.18Z"/><path class="cls-1" d="M165.35,20c.05,2.94,1.91,4.16,4.09,4.16a8.28,8.28,0,0,0,3.32-.6l.4,1.54a9.91,9.91,0,0,1-4,.77c-3.66,0-5.89-2.46-5.89-6.05s2.15-6.49,5.65-6.49c3.91,0,4.93,3.45,4.93,5.65a5.54,5.54,0,0,1-.08,1Zm6.37-1.57c0-1.36-.57-3.54-3-3.54-2.23,0-3.17,2-3.34,3.54Z"/><path class="cls-1" d="M186.41,25.9c-3.22,0-5.75-2.38-5.75-6.17,0-4,2.65-6.37,6-6.37s5.77,2.51,5.77,6.15c0,4.46-3.1,6.39-5.95,6.39Zm.07-1.63c2.08,0,3.64-2,3.64-4.69,0-2-1-4.58-3.59-4.58s-3.66,2.38-3.66,4.66c0,2.62,1.48,4.61,3.59,4.61Z"/><path class="cls-1" d="M195,16.88c0-1.26,0-2.25-.11-3.24h1.94l.12,1.95h0a4.44,4.44,0,0,1,4-2.23c1.66,0,4.24,1,4.24,5.11v7.16H203V18.71c0-1.92-.72-3.56-2.78-3.56a3.15,3.15,0,0,0-2.92,2.23,3.22,3.22,0,0,0-.15,1v7.23H195V16.88Z"/><path class="cls-1" d="M216.38,10.76v2.88h3.12V15.3h-3.12v6.46c0,1.49.42,2.33,1.64,2.33a4,4,0,0,0,1.26-.15l.1,1.66a5.88,5.88,0,0,1-1.93.3,3.11,3.11,0,0,1-2.36-.91,4.73,4.73,0,0,1-.84-3.15V15.3H212.4V13.64h1.85V11.43Z"/><path class="cls-1" d="M221.83,8H224v7.48h.05A3.92,3.92,0,0,1,225.62,14a4.32,4.32,0,0,1,2.23-.62c1.61,0,4.19,1,4.19,5.13v7.14h-2.18V18.74c0-1.95-.72-3.57-2.78-3.57a3.15,3.15,0,0,0-2.92,2.18,2.72,2.72,0,0,0-.15,1v7.24h-2.18Z"/><path class="cls-1" d="M236.7,20c0,2.94,1.9,4.16,4.08,4.16a8.28,8.28,0,0,0,3.32-.6l.4,1.54a9.91,9.91,0,0,1-4,.77c-3.66,0-5.89-2.46-5.89-6.05s2.15-6.49,5.65-6.49c3.91,0,4.93,3.45,4.93,5.65a5.54,5.54,0,0,1-.08,1Zm6.36-1.57c0-1.36-.57-3.54-3-3.54-2.22,0-3.17,2-3.34,3.54Z"/><path class="cls-1" d="M90.5,30.31,80.36,60.15H85L88,51h9.82L101,60.15h4.77L95.55,30.31Zm2.41,4.91c.34,1.33.71,2.71,1.18,4.21l2.73,7.91H89.05l2.69-8C92.15,38.08,92.54,36.69,92.91,35.22Z"/><path class="cls-1" d="M118.85,38a8.44,8.44,0,0,0-7.18,3.45l-.18-3h-4.13l0,.38c.13,1.85.18,3.88.18,6.8v23h4.51V58a8,8,0,0,0,6.17,2.65,9.28,9.28,0,0,0,6.84-2.91,12.31,12.31,0,0,0,3-8.68,12,12,0,0,0-2.62-7.93A8.6,8.6,0,0,0,118.85,38Zm-1.13,3.74c4,0,5.83,3.73,5.83,7.42,0,4.77-2.3,7.73-6,7.73a5.47,5.47,0,0,1-5.32-4.19,6,6,0,0,1-.16-1.46V47.65a6.85,6.85,0,0,1,.14-1.12c0-.12.05-.24.07-.36A5.71,5.71,0,0,1,117.72,41.78Z"/><path class="cls-1" d="M142.09,38a8.45,8.45,0,0,0-7.18,3.45l-.18-3h-4.12l0,.38c.12,1.85.17,3.88.17,6.8v23h4.52V58a7.93,7.93,0,0,0,6.17,2.65,9.28,9.28,0,0,0,6.84-2.91,12.36,12.36,0,0,0,3-8.68,12,12,0,0,0-2.63-7.93A8.58,8.58,0,0,0,142.09,38ZM141,41.78c4,0,5.82,3.73,5.82,7.42,0,4.77-2.3,7.73-6,7.73a5.52,5.52,0,0,1-5.47-5.65V47.65a6.85,6.85,0,0,1,.14-1.12c0-.12,0-.24.07-.36A5.7,5.7,0,0,1,141,41.78Z"/><path class="cls-1" d="M171.21,43c-4.21-1.63-5.56-2.91-5.56-5.28,0-2,1.58-4,5.13-4a10.2,10.2,0,0,1,5.3,1.33l.38.23,1.28-3.76-.26-.15a13.07,13.07,0,0,0-6.57-1.48c-5.76,0-9.78,3.4-9.78,8.27,0,3.92,2.52,6.66,7.93,8.63,3.83,1.43,5.25,2.9,5.25,5.41,0,2.85-2.2,4.61-5.74,4.61a12.37,12.37,0,0,1-6.5-1.84l-.39-.25-1.21,3.85.22.15a15.42,15.42,0,0,0,7.63,2c7.76,0,10.51-4.73,10.51-8.78S176.62,45.09,171.21,43Z"/><path class="cls-1" d="M187,33.38l-4.43,1.39v3.75h-3.24v3.61h3.24v11c0,2.67.52,4.54,1.57,5.73a5.8,5.8,0,0,0,4.36,1.71,10.65,10.65,0,0,0,3.49-.54l.26-.09L192,56.38l-.43.13a6.68,6.68,0,0,1-2.1.24c-1.75,0-2.5-1.1-2.5-3.7V42.13h5.45V38.52H187V33.38Z"/><path class="cls-1" d="M203.58,38c-6.31,0-10.72,4.72-10.72,11.47,0,6.54,4.27,11.11,10.38,11.11h0c5.17,0,10.73-3.6,10.73-11.5a11.42,11.42,0,0,0-2.88-8A10,10,0,0,0,203.58,38Zm-.13,3.57c4.07,0,5.91,4,5.91,7.64,0,4.52-2.52,7.81-6,7.81h0c-3.43,0-5.91-3.23-5.91-7.68C197.42,45.51,199.28,41.61,203.45,41.61Z"/><path class="cls-1" d="M227.83,38.25l-.27-.07a4.71,4.71,0,0,0-1.12-.14,6.44,6.44,0,0,0-5.66,3.64l-.13-3.16H216.6l0,.38c.12,1.79.17,3.79.17,6.5l0,14.75h4.52V48.64a11.93,11.93,0,0,1,.12-1.75c.51-2.76,2.38-4.55,4.75-4.55a10.83,10.83,0,0,1,1.21.08l.49,0V38.25Z"/><path class="cls-1" d="M238,38c-6,0-10.2,4.8-10.2,11.68,0,6.62,4.17,10.9,10.63,10.9a17.4,17.4,0,0,0,7.15-1.37l.27-.13L245,55.72l-.38.15a14,14,0,0,1-5.66,1c-2,0-6.48-.64-6.76-6.54l14.57,0,.06-.29a10.07,10.07,0,0,0,.14-1.88C246.94,43.5,244.59,38,238,38Zm-.3,3.44A4.46,4.46,0,0,1,241,42.7a6.47,6.47,0,0,1,1.55,4.2H232.26C232.67,44.3,234.31,41.44,237.68,41.44Z"/><path class="cls-1" d="M61.53,8.82h-21A4.56,4.56,0,0,0,36,13.38V59.89a4.56,4.56,0,0,0,4.55,4.56h21a4.56,4.56,0,0,0,4.55-4.56V13.38A4.56,4.56,0,0,0,61.53,8.82ZM51,61.1a3,3,0,1,1,3-3A3,3,0,0,1,51,61.1Zm11.48-7.55h-23V19.25h23v34.3Z"/><path d="M53,14.85H49a.5.5,0,0,1-.5-.5h0a.51.51,0,0,1,.5-.5h4a.5.5,0,0,1,.5.5h0A.5.5,0,0,1,53,14.85Z"/></g></g></svg>