<svg xmlns="http://www.w3.org/2000/svg" viewBox="0 0 315 41.27"><defs><style>.cls-1{fill:red;stroke:#fff;stroke-miterlimit:10;}.cls-2{fill:#fff;}</style></defs><title>Asset 1</title><g id="Layer_2" data-name="Layer 2"><g id="Layer_1-2" data-name="Layer 1"><path class="cls-1" d="M161.63.5a20.14,20.14,0,1,0,20.13,20.13A20.13,20.13,0,0,0,161.63.5"/><path class="cls-2" d="M155.72,12.64h-.67c-1.27,0-2,.72-2,2.16v6.93c0,1.78-.6,2.41-2,2.41a3.42,3.42,0,0,1-2.74-1.37,2.32,2.32,0,0,0-1.53,2.32c0,1.85,1.74,3,5,3,3.92,0,6-2,6-6.27v-7c0-1.44-.7-2.16-2-2.16m6.07,3.5h-.46c-1.14,0-2,.53-2,2.16v7.41c0,1.65.84,2.16,2,2.16h.47c1.13,0,1.94-.56,1.94-2.16V18.3c0-1.67-.79-2.16-2-2.16m-.26-5.37a2.07,2.07,0,0,0-2.34,2.08c0,1.3.93,2.11,2.41,2.11a2.07,2.07,0,0,0,2.34-2.11c0-1.3-.92-2.08-2.41-2.08m9.8,5.26c-3.8,0-6.33,2.41-6.33,6s2.43,6,6.26,6,6.3-2.36,6.3-6-2.48-6-6.23-6m-.05,8.64a2.46,2.46,0,0,1-2.5-2.64,2.5,2.5,0,1,1,5,0,2.49,2.49,0,0,1-2.5,2.62"/><path class="cls-2" d="M10.86,12.78a6.19,6.19,0,0,1,2.55,2.73,9.38,9.38,0,0,1,.9,4.27,9.84,9.84,0,0,1-.89,4.35,6.25,6.25,0,0,1-2.53,2.79,7.62,7.62,0,0,1-3.9,1H0v-16H7A7.7,7.7,0,0,1,10.86,12.78ZM8.71,24.3a3.51,3.51,0,0,0,1.43-1.56,6,6,0,0,0,.52-2.68,5.56,5.56,0,0,0-1.16-3.9,4.46,4.46,0,0,0-3.41-1.23H3.65V24.8h3A4.19,4.19,0,0,0,8.71,24.3Z"/><path class="cls-2" d="M31.32,24.17a7.27,7.27,0,0,1-2.76,3,8,8,0,0,1-4.2,1.09,8,8,0,0,1-4.18-1.09,7.31,7.31,0,0,1-2.75-3,9.32,9.32,0,0,1-1-4.25,9.52,9.52,0,0,1,1-4.32,7.18,7.18,0,0,1,2.74-3,7.79,7.79,0,0,1,4.2-1.1,7.86,7.86,0,0,1,4.17,1.09,7.25,7.25,0,0,1,2.78,3,9.46,9.46,0,0,1,1,4.34A9.32,9.32,0,0,1,31.32,24.17Zm-4.6.32a4.19,4.19,0,0,0,1.44-1.88,7.09,7.09,0,0,0,.48-2.69,7.55,7.55,0,0,0-.48-2.79,4.2,4.2,0,0,0-1.44-1.9,3.92,3.92,0,0,0-2.38-.7,3.84,3.84,0,0,0-2.32.69,4.08,4.08,0,0,0-1.43,1.9,7.61,7.61,0,0,0-.48,2.8,7.23,7.23,0,0,0,.48,2.71A4.18,4.18,0,0,0,22,24.51a3.92,3.92,0,0,0,2.34.68A3.88,3.88,0,0,0,26.72,24.49Z"/><path class="cls-2" d="M37.25,11.84l2.49,10.82h0L42.5,11.84h3.39l2.67,11h0l2.58-11h3.58L50.45,27.89H46.82l-2.64-10.8h0l-2.58,10.8H37.86l-4.25-16Z"/><path class="cls-2" d="M60.39,11.84l6.55,10.54h0V11.84H70.4V27.89H66.75L60.22,17.34h0V27.89H56.76v-16Z"/><path class="cls-2" d="M77.53,11.84v13h7.75v3.09H73.88v-16Z"/><path class="cls-2" d="M101.88,24.17a7.29,7.29,0,0,1-2.77,3,8.58,8.58,0,0,1-8.37,0,7.31,7.31,0,0,1-2.75-3,9.32,9.32,0,0,1-1-4.25,9.52,9.52,0,0,1,1-4.32,7.18,7.18,0,0,1,2.74-3,8.54,8.54,0,0,1,8.37,0,7.25,7.25,0,0,1,2.78,3,9.46,9.46,0,0,1,1,4.34A9.32,9.32,0,0,1,101.88,24.17Zm-4.6.32a4.19,4.19,0,0,0,1.44-1.88,7.09,7.09,0,0,0,.48-2.69,7.55,7.55,0,0,0-.48-2.79,4.2,4.2,0,0,0-1.44-1.9,3.92,3.92,0,0,0-2.38-.7,3.84,3.84,0,0,0-2.32.69,4.08,4.08,0,0,0-1.43,1.9,7.61,7.61,0,0,0-.48,2.8,7.23,7.23,0,0,0,.48,2.71,4.18,4.18,0,0,0,1.43,1.88,3.92,3.92,0,0,0,2.34.68A3.88,3.88,0,0,0,97.28,24.49Z"/><path class="cls-2" d="M113.76,11.84l6,16.05H116l-1.18-3.44h-5.92l-1.21,3.44H104l6.08-16Zm-1.91,4.08-2,5.81h4.06l-2-5.81Z"/><path class="cls-2" d="M132.4,12.78A6.19,6.19,0,0,1,135,15.51a9.38,9.38,0,0,1,.9,4.27,9.84,9.84,0,0,1-.89,4.35,6.3,6.3,0,0,1-2.53,2.79,7.62,7.62,0,0,1-3.9,1h-7v-16h7A7.7,7.7,0,0,1,132.4,12.78ZM130.25,24.3a3.51,3.51,0,0,0,1.43-1.56,6,6,0,0,0,.52-2.68,5.56,5.56,0,0,0-1.16-3.9,4.49,4.49,0,0,0-3.42-1.23h-2.44V24.8h3A4.23,4.23,0,0,0,130.25,24.3Z"/><path class="cls-2" d="M194.81,11.84l3.62,10.87h0l3.46-10.87h5.13V27.89h-3.41V16.62h0l-3.83,11.27H197l-3.83-11.18h0V27.89h-3.41v-16Z"/><path class="cls-2" d="M212.88,11.84l3.67,6.29,3.64-6.29h4.07l-5.95,9.91v6.14h-3.64V21.66l-5.88-9.82Z"/><path class="cls-2" d="M235.41,22.8a5.61,5.61,0,0,1-1.35,4.06,5.35,5.35,0,0,1-4,1.4,6.32,6.32,0,0,1-2.87-.62,4.43,4.43,0,0,1-1.87-1.74,5.22,5.22,0,0,1-.65-2.64v-.41H228a2.77,2.77,0,0,0,.48,1.8,1.83,1.83,0,0,0,1.47.56,1.87,1.87,0,0,0,1.2-.33,1.57,1.57,0,0,0,.53-.85,4.88,4.88,0,0,0,.13-1.23v-11h3.65Z"/><path class="cls-2" d="M242.54,11.84V27.89h-3.65v-16Z"/><path class="cls-2" d="M260.2,24.17a7.27,7.27,0,0,1-2.76,3,8.6,8.6,0,0,1-8.38,0,7.31,7.31,0,0,1-2.75-3,9.32,9.32,0,0,1-1-4.25,9.52,9.52,0,0,1,1-4.32,7.18,7.18,0,0,1,2.74-3,8.54,8.54,0,0,1,8.37,0,7.25,7.25,0,0,1,2.78,3,9.46,9.46,0,0,1,1,4.34A9.32,9.32,0,0,1,260.2,24.17Zm-4.6.32A4.19,4.19,0,0,0,257,22.61a7.09,7.09,0,0,0,.48-2.69,7.55,7.55,0,0,0-.48-2.79,4.2,4.2,0,0,0-1.44-1.9,3.9,3.9,0,0,0-2.38-.7,3.84,3.84,0,0,0-2.32.69,4.08,4.08,0,0,0-1.43,1.9,7.61,7.61,0,0,0-.48,2.8,7.23,7.23,0,0,0,.48,2.71,4.18,4.18,0,0,0,1.43,1.88,3.92,3.92,0,0,0,2.34.68A3.88,3.88,0,0,0,255.6,24.49Z"/><path class="cls-2" d="M278.86,11.84l6,16.05h-3.78l-1.19-3.44H274l-1.21,3.44h-3.69l6.09-16ZM277,15.92l-2,5.81H279l-2-5.81Z"/><path class="cls-2" d="M297.05,12.52a4.51,4.51,0,0,1,1.87,1.85,5.57,5.57,0,0,1,.61,2.65,5.58,5.58,0,0,1-.63,2.68A4.42,4.42,0,0,1,297,21.55a6.47,6.47,0,0,1-3.06.67h-3.67v5.67h-3.65v-16H294A6.36,6.36,0,0,1,297.05,12.52Zm-1.76,6.3A2.08,2.08,0,0,0,296,17a2.11,2.11,0,0,0-.71-1.75,3.59,3.59,0,0,0-2.25-.57h-2.78v4.64H293A3.8,3.8,0,0,0,295.29,18.82Z"/><path class="cls-2" d="M312.51,12.52a4.45,4.45,0,0,1,1.87,1.85A5.57,5.57,0,0,1,315,17a5.58,5.58,0,0,1-.63,2.68,4.47,4.47,0,0,1-1.88,1.85,6.52,6.52,0,0,1-3.06.67h-3.67v5.67h-3.65v-16h7.36A6.32,6.32,0,0,1,312.51,12.52Zm-1.75,6.3a2.08,2.08,0,0,0,.73-1.78,2.09,2.09,0,0,0-.71-1.75,3.56,3.56,0,0,0-2.24-.57h-2.78v4.64h2.74A3.82,3.82,0,0,0,310.76,18.82Z"/></g></g></svg>