<svg xmlns="http://www.w3.org/2000/svg" viewBox="0 0 144 144"><defs><style>.cls-1{fill:#166ebc;}.cls-2{fill:#e1141b;}.cls-3{fill:#fcf400;}.cls-4{fill:#fff;}</style></defs><title>Asset 5</title><g id="Layer_2" data-name="Layer 2"><g id="Layer_1-2" data-name="Layer 1"><circle class="cls-1" cx="72" cy="72" r="71"/><path class="cls-2" d="M72,144a72,72,0,1,1,72-72A72.08,72.08,0,0,1,72,144ZM72,2a70,70,0,1,0,70,70A70.08,70.08,0,0,0,72,2Z"/><path class="cls-3" d="M35.75,28.24H30.38v3.54h5.06v2.48H30.38v4H36v2.49H27.35v-15h8.4Z"/><path class="cls-3" d="M41.86,36.87h.06l2.23-11.11h3.14l-3.45,15h-3.9l-3.45-15h3.24Z"/><path class="cls-3" d="M56.8,28.24H51.44v3.54h5.05v2.48H51.44v4H57v2.49H48.4v-15h8.4Z"/><path class="cls-3" d="M64.13,25.76a4.27,4.27,0,0,1,3,.95,3.76,3.76,0,0,1,1,2.92,4.5,4.5,0,0,1-.61,2.47,2.82,2.82,0,0,1-1.89,1.23v.05a2.79,2.79,0,0,1,1.66.73A3.11,3.11,0,0,1,67.94,36c0,.28,0,.58.06.91s0,.7,0,1.11q0,1.2.12,1.83a1.19,1.19,0,0,0,.55.86v.13H65.44a1.58,1.58,0,0,1-.3-.73,7.66,7.66,0,0,1-.08-.85L65,36.33a2.28,2.28,0,0,0-.44-1.39,1.61,1.61,0,0,0-1.35-.51H61.56v6.36h-3v-15Zm-1.3,6.56a2.48,2.48,0,0,0,1.68-.51,2.23,2.23,0,0,0,.59-1.74A1.85,1.85,0,0,0,63,28H61.56v4.33Z"/><path class="cls-3" d="M74.26,31.57h0l2.11-5.81h3.28l-3.9,9.11v5.92h-3V34.87l-3.89-9.11h3.41Z"/><path class="cls-3" d="M91,25.76a5.45,5.45,0,0,1,2.55.51A3.71,3.71,0,0,1,95,27.75a6.48,6.48,0,0,1,.72,2.3,21.18,21.18,0,0,1,.19,3,21.46,21.46,0,0,1-.24,3.44,6.56,6.56,0,0,1-.83,2.41,3.67,3.67,0,0,1-1.58,1.42,6.08,6.08,0,0,1-2.51.46H86v-15Zm-.59,12.8a2.65,2.65,0,0,0,1.29-.28,1.88,1.88,0,0,0,.77-.9,5.5,5.5,0,0,0,.38-1.67c.06-.68.09-1.54.09-2.56,0-.86,0-1.61-.08-2.26a5.94,5.94,0,0,0-.35-1.61,2.06,2.06,0,0,0-.78-1A2.61,2.61,0,0,0,90.32,28H89V38.56Z"/><path class="cls-3" d="M104.62,25.76l4,15h-3.16l-.7-3.18h-4l-.69,3.18H96.89l4-15Zm-.4,9.36-1.46-6.75h0l-1.45,6.75Z"/><path class="cls-3" d="M112.89,31.57h0L115,25.76h3.28l-3.89,9.11v5.92h-3V34.87l-3.9-9.11h3.41Z"/><path class="cls-3" d="M36.66,110.83a2.17,2.17,0,0,0-.24-.63,1.47,1.47,0,0,0-.42-.47,1,1,0,0,0-.62-.19,1.29,1.29,0,0,0-1.23.95,9.4,9.4,0,0,0-.37,3.15c0,.7,0,1.33.06,1.9a6.62,6.62,0,0,0,.24,1.45,2.06,2.06,0,0,0,.49.92,1.11,1.11,0,0,0,.83.32,1.27,1.27,0,0,0,.47-.11,1.41,1.41,0,0,0,.47-.35,1.75,1.75,0,0,0,.37-.58,2.09,2.09,0,0,0,.15-.83v-1.19H35.3v-1.74h3.82v6.31H37.38v-1.08h0a2.51,2.51,0,0,1-1,1,3.33,3.33,0,0,1-1.44.28,3.62,3.62,0,0,1-1.76-.37,2.6,2.6,0,0,1-1.07-1.17,5.89,5.89,0,0,1-.52-1.94,26.18,26.18,0,0,1-.13-2.69,16.43,16.43,0,0,1,.19-2.59,5.22,5.22,0,0,1,.65-1.86,3,3,0,0,1,1.21-1.12,4.27,4.27,0,0,1,1.89-.38,3.57,3.57,0,0,1,2.79,1,4,4,0,0,1,.85,2.75H36.73A4,4,0,0,0,36.66,110.83Z"/><path class="cls-3" d="M42.86,116.2a5,5,0,0,0,.06.81,1.93,1.93,0,0,0,.21.64,1.26,1.26,0,0,0,.43.43,1.4,1.4,0,0,0,.68.15,1.36,1.36,0,0,0,.69-.15,1.15,1.15,0,0,0,.42-.43,1.93,1.93,0,0,0,.21-.64,5,5,0,0,0,.06-.81V108H48v8.17a4.65,4.65,0,0,1-.31,1.84,2.93,2.93,0,0,1-.84,1.16,2.82,2.82,0,0,1-1.19.58,7.15,7.15,0,0,1-1.4.14,7,7,0,0,1-1.39-.13,2.84,2.84,0,0,1-1.2-.53,2.79,2.79,0,0,1-.84-1.14,5.13,5.13,0,0,1-.31-1.92V108h2.36Z"/><path class="cls-3" d="M54.68,108l3.1,11.71H55.32l-.55-2.47H51.66l-.54,2.47H48.66L51.76,108Zm-.32,7.3-1.13-5.27h0l-1.13,5.27Z"/><path class="cls-3" d="M63,108a3.28,3.28,0,0,1,2.3.75,2.93,2.93,0,0,1,.82,2.27A3.52,3.52,0,0,1,65.6,113a2.24,2.24,0,0,1-1.47,1v0a2.16,2.16,0,0,1,1.29.57,2.36,2.36,0,0,1,.51,1.43c0,.22,0,.46,0,.71s0,.55,0,.86c0,.63.06,1.1.1,1.43a.92.92,0,0,0,.43.67v.1H64a1.21,1.21,0,0,1-.23-.56c0-.22-.06-.44-.07-.67l-.06-2.24a1.84,1.84,0,0,0-.35-1.09,1.25,1.25,0,0,0-1.05-.39H61v4.95H58.6V108Zm-1,5.12a2,2,0,0,0,1.32-.4,1.75,1.75,0,0,0,.46-1.36,1.44,1.44,0,0,0-1.64-1.62H61v3.38Z"/><path class="cls-3" d="M72.92,108,76,119.74H73.56L73,117.27H69.9l-.54,2.47H66.9L70,108Zm-.31,7.3-1.13-5.27h0l-1.13,5.27Z"/><path class="cls-3" d="M82.42,116.05h0v-8h2.17v11.71H81.93L79,111.54h0v8.2H76.84V108h2.72Z"/><path class="cls-3" d="M93.11,110H90.55v9.77H88.19V110H85.63V108h7.48Z"/><path class="cls-3" d="M100.68,110H96.49v2.75h3.94v1.94H96.49v3.15h4.35v1.93H94.13V108h6.55Z"/><path class="cls-3" d="M108.57,110h-4.19v2.75h3.94v1.94h-3.94v3.15h4.35v1.93H102V108h6.55Z"/><path class="cls-3" d="M113.9,108a4.17,4.17,0,0,1,2,.4,2.84,2.84,0,0,1,1.18,1.15,5,5,0,0,1,.56,1.8,16.64,16.64,0,0,1,.15,2.34,16.12,16.12,0,0,1-.19,2.68,5,5,0,0,1-.65,1.88,2.79,2.79,0,0,1-1.23,1.1,4.59,4.59,0,0,1-2,.36H110V108Zm-.46,10a2,2,0,0,0,1-.21,1.5,1.5,0,0,0,.6-.7,3.91,3.91,0,0,0,.29-1.3c0-.54.08-1.2.08-2s0-1.25-.07-1.76a4.08,4.08,0,0,0-.27-1.25,1.54,1.54,0,0,0-.6-.76,2,2,0,0,0-1.08-.25h-1V118Z"/><path class="cls-4" d="M37,44.56l3,16.7h.08l3-16.7h10.5V72.74H46.66v-21h-.08l-3.9,21H37.39l-3.91-21H33.4v21H26.54V44.56Z"/><path class="cls-4" d="M56.41,51.92a11.93,11.93,0,0,1,1.7-4.54,6.9,6.9,0,0,1,3.12-2.56A12.27,12.27,0,0,1,66,44a12.29,12.29,0,0,1,4.74.81,6.9,6.9,0,0,1,3.12,2.56,12.1,12.1,0,0,1,1.7,4.54A38,38,0,0,1,76,58.65a38,38,0,0,1-.51,6.73,12,12,0,0,1-1.7,4.54,6.55,6.55,0,0,1-3.12,2.51,13.17,13.17,0,0,1-4.74.75,13.15,13.15,0,0,1-4.73-.75,6.55,6.55,0,0,1-3.12-2.51,11.87,11.87,0,0,1-1.7-4.54,38,38,0,0,1-.51-6.73A38,38,0,0,1,56.41,51.92Zm7.15,11.45a16.86,16.86,0,0,0,.33,3,2.91,2.91,0,0,0,.75,1.54,2.26,2.26,0,0,0,2.65,0A2.91,2.91,0,0,0,68,66.35a16.86,16.86,0,0,0,.33-3c0-1.25.08-2.82.08-4.72s0-3.47-.08-4.72A16.73,16.73,0,0,0,68,51a2.87,2.87,0,0,0-.75-1.54,2.22,2.22,0,0,0-2.65,0A2.87,2.87,0,0,0,63.89,51a16.73,16.73,0,0,0-.33,3c-.06,1.25-.08,2.83-.08,4.72S63.5,62.12,63.56,63.37Z"/><path class="cls-4" d="M90.16,44.56a10.46,10.46,0,0,1,3.57.55,6.14,6.14,0,0,1,2.41,1.56,6.05,6.05,0,0,1,1.34,2.39,10.26,10.26,0,0,1,.41,3,8.24,8.24,0,0,1-1.14,4.58,5.06,5.06,0,0,1-3.67,2.13v.08a4.4,4.4,0,0,1,3.63,1.85,8.55,8.55,0,0,1,1,4.46v3.56c0,.39,0,.77,0,1.12a8.41,8.41,0,0,0,.11,1,2.86,2.86,0,0,0,.2.67c.11.16.21.31.32.45a1.4,1.4,0,0,0,.51.42v.39H91.07a4.62,4.62,0,0,1-.42-1.3c-.09-.5-.16-1-.2-1.5s-.06-1-.07-1.44,0-.84,0-1.13V65.48a13.37,13.37,0,0,0-.12-2,3.16,3.16,0,0,0-.42-1.25,1.53,1.53,0,0,0-.75-.63A3,3,0,0,0,88,61.45H86V72.74H78.67V44.56ZM87.47,56.48a2.81,2.81,0,0,0,2.33-.93,3.72,3.72,0,0,0,.75-2.42,3.54,3.54,0,0,0-.73-2.53,3.21,3.21,0,0,0-2.39-.75H86v6.63Z"/><path class="cls-4" d="M118,44.56v6h-9.35v4.82h8.76v5.76h-8.76v5.6h9.71v6h-17V44.56Z"/><path class="cls-4" d="M31.76,75.92l2.72,21.24h.07l2.73-21.24h7.18L38.87,104.1H30.16L24.68,75.92Z"/><path class="cls-4" d="M57,75.92l6.31,28.18H56.08l-.69-4.93H50l-.69,4.93H42.25l6.21-28.18Zm-4.29,5.77-1.85,12H54.6l-1.86-12Z"/><path class="cls-4" d="M71.15,75.92V98.1h8.32v6H64.4V75.92Z"/><path class="cls-4" d="M87.67,96.25A4.77,4.77,0,0,0,88.22,99a2,2,0,0,0,3,0,4.78,4.78,0,0,0,.54-2.74V75.92H98.5V94.39a17.66,17.66,0,0,1-.59,4.94,7.68,7.68,0,0,1-1.68,3.15,5.69,5.69,0,0,1-2.75,1.62,16.33,16.33,0,0,1-7.53,0,5.68,5.68,0,0,1-2.76-1.62,7.7,7.7,0,0,1-1.69-3.15,17.7,17.7,0,0,1-.58-4.94V75.92h6.75Z"/><path class="cls-4" d="M116.76,75.92v6h-8.61v4.82h8.06V92.5h-8.06v5.6h8.94v6H101.4V75.92Z"/></g></g></svg>