<svg xmlns="http://www.w3.org/2000/svg" xmlns:xlink="http://www.w3.org/1999/xlink" viewBox="0 0 286 73.27"><defs><style>.a{fill:none;}.b{clip-path:url(#a);}.c{fill:url(#b);}.d{fill:url(#d);}.e{fill:url(#f);}.f{fill:url(#h);}.g{fill:#f9f9f9;}.h{fill:#f9f9fa;}</style><clipPath id="a"><path class="a" d="M64.62,32.25l-10.1-5.83L35,15.17c-1.08-.62-2.16-.24-2.16,1.06V62.06c0,1,.77,1.4,1.71.86L54.52,51.41l10.1-5.83L74.33,40c1.14-.65,1-1.56.06-2.07s-9.77-5.65-9.77-5.65Z"/></clipPath><linearGradient id="b" x1="861.92" y1="2998.07" x2="861.92" y2="2993.94" gradientTransform="matrix(12, 0, 0, -12, -10297.71, 35990.98)" gradientUnits="userSpaceOnUse"><stop offset="0" stop-color="#257cb0"/><stop offset="0.29" stop-color="#4a93b5"/><stop offset="0.77" stop-color="#78bcbb"/><stop offset="1" stop-color="#89cfbd"/></linearGradient><linearGradient id="d" x1="860.88" y1="2997.05" x2="863.53" y2="2997.05" gradientTransform="matrix(12, 0, 0, -12, -10297.71, 35990.98)" gradientUnits="userSpaceOnUse"><stop offset="0" stop-color="#52c1ad"/><stop offset="1" stop-color="#dee89a"/></linearGradient><linearGradient id="f" x1="862.2" y1="2996.01" x2="862.2" y2="2993.92" gradientTransform="matrix(12, 0, 0, -12, -10297.71, 35990.98)" gradientUnits="userSpaceOnUse"><stop offset="0" stop-color="#ec413d"/><stop offset="0.17" stop-color="#da4452"/><stop offset="0.57" stop-color="#b0487a"/><stop offset="0.86" stop-color="#954a92"/><stop offset="1" stop-color="#8a4a9d"/></linearGradient><linearGradient id="h" x1="863.73" y1="2996.56" x2="863.73" y2="2995.45" gradientTransform="matrix(12, 0, 0, -12, -10297.71, 35990.98)" gradientUnits="userSpaceOnUse"><stop offset="0" stop-color="#f58879"/><stop offset="0.12" stop-color="#f69079"/><stop offset="0.71" stop-color="#fcb877"/><stop offset="1" stop-color="#fec874"/></linearGradient></defs><title>Asset 1</title><path d="M249.37,73.27H36.63A36.74,36.74,0,0,1,0,36.63H0A36.74,36.74,0,0,1,36.63,0H249.37A36.75,36.75,0,0,1,286,36.63h0A36.74,36.74,0,0,1,249.37,73.27Z"/><g class="b"><path class="c" d="M32.88,14.11V63.72l25-24.8Z"/></g><g class="b"><path class="d" d="M64.62,32.25l-10.1-5.83L32.88,13.93v.18l25,24.8Z"/></g><g class="b"><path class="e" d="M32.88,63.72v.18L54.52,51.41l10.1-5.83L57.9,38.91Z"/></g><g class="b"><path class="f" d="M64.62,32.25,57.9,38.92l6.72,6.66,11.54-6.66Z"/></g><path class="g" d="M190.4,48.61a6.23,6.23,0,0,1-2.58-.52,4.77,4.77,0,0,1-1.95-1.6h-.16a20.7,20.7,0,0,1,.16,2.4v5.94h-2.19V33.92h1.78l.3,2h.11a5,5,0,0,1,2-1.71,5.82,5.82,0,0,1,2.57-.53,5.33,5.33,0,0,1,4.43,2,8.63,8.63,0,0,1,1.56,5.5,8.61,8.61,0,0,1-1.59,5.53,5.35,5.35,0,0,1-4.4,2Zm-.32-13.1a3.87,3.87,0,0,0-3.2,1.23,6.22,6.22,0,0,0-1,3.9v.48a7.18,7.18,0,0,0,1,4.35,3.84,3.84,0,0,0,3.25,1.31,3.37,3.37,0,0,0,2.93-1.51,7.15,7.15,0,0,0,1.06-4.17A6.88,6.88,0,0,0,193.06,37a3.46,3.46,0,0,0-3-1.45Zm11.37,12.84h-2.19V27.86h2.19Zm12.56,0-.43-2.05h-.11a6.13,6.13,0,0,1-2.15,1.83,6.59,6.59,0,0,1-2.68.48,4.84,4.84,0,0,1-3.37-1.1,4,4,0,0,1-1.21-3.15q0-4.36,7-4.58l2.45-.08v-.89a3.69,3.69,0,0,0-.73-2.51,3,3,0,0,0-2.34-.81,9.62,9.62,0,0,0-4.08,1.1l-.67-1.67a10.35,10.35,0,0,1,4.88-1.23,5.53,5.53,0,0,1,3.83,1.14,4.77,4.77,0,0,1,1.24,3.67v9.85Zm-4.94-1.54a4.44,4.44,0,0,0,3.21-1.12,4.12,4.12,0,0,0,1.17-3.13V41.25l-2.19.1a7.92,7.92,0,0,0-3.76.81,2.43,2.43,0,0,0-1.15,2.23,2.24,2.24,0,0,0,.72,1.8,3,3,0,0,0,2,.62Zm7.83-12.89h2.34l3.16,8.23a30.55,30.55,0,0,1,1.29,4.07h.11c.11-.45.35-1.21.71-2.3s1.56-4.42,3.58-10h2.34l-6.2,16.43a8.14,8.14,0,0,1-2.15,3.46,4.58,4.58,0,0,1-3,1,8.78,8.78,0,0,1-2-.23V52.85a7.41,7.41,0,0,0,1.62.16c1.5,0,2.57-.84,3.22-2.53l.8-2L216.9,33.92Zm-67,1.34a5.08,5.08,0,0,1,2.14,4.08c0,2.23-1.26,3.29-2.53,4.28a2.11,2.11,0,0,0-.85,1.48,1.65,1.65,0,0,0,.79,1.3l1.09.84c1.32,1.12,2.53,2.15,2.53,4.23,0,2.84-2.75,5.7-7.94,5.7-4.38,0-6.49-2.08-6.49-4.31A4.35,4.35,0,0,1,141,49.17a13.18,13.18,0,0,1,5.76-1.39,3.16,3.16,0,0,1-.91-2.05,2.69,2.69,0,0,1,.31-1.17c-.34,0-.67.06-1,.06a4.77,4.77,0,0,1-5-4.74,5.43,5.43,0,0,1,1.93-4,8.22,8.22,0,0,1,5.41-1.66h6.21l-1.93,1.08Zm-2.14,13.4a5,5,0,0,0-.7,0,11.89,11.89,0,0,0-3.17.49,3.38,3.38,0,0,0-2.59,3.1c0,2.15,2.08,3.69,5.31,3.69,2.9,0,4.44-1.4,4.44-3.26,0-1.55-1-2.36-3.29-4Zm.87-5.73a3,3,0,0,0,.76-2.21c0-2.17-1.3-5.55-3.81-5.55a2.8,2.8,0,0,0-2.11,1,3.47,3.47,0,0,0-.66,2.23c0,2,1.17,5.37,3.77,5.37a3.07,3.07,0,0,0,2-.84Zm-17.73,5.25a7.11,7.11,0,0,1-7.35-7.11,7.46,7.46,0,0,1,7.8-7.32,7,7,0,0,1,7.2,7.11,7.36,7.36,0,0,1-7.65,7.32Zm3.77-2.44a5.49,5.49,0,0,0,.9-3.35c0-2.65-1.26-7.71-5-7.71a4.15,4.15,0,0,0-2.71,1,4.54,4.54,0,0,0-1.39,3.67c0,3,1.48,7.89,5.12,7.89a3.87,3.87,0,0,0,3.08-1.53Zm-20.1,2.44a7.11,7.11,0,0,1-7.35-7.11,7.46,7.46,0,0,1,7.8-7.32,7,7,0,0,1,7.2,7.11A7.36,7.36,0,0,1,114.58,48.18Zm3.77-2.44a5.49,5.49,0,0,0,.9-3.35c0-2.65-1.27-7.71-5-7.71a4.15,4.15,0,0,0-2.71,1,4.54,4.54,0,0,0-1.39,3.67c0,3,1.48,7.89,5.12,7.89A3.87,3.87,0,0,0,118.35,45.74Zm-13.43,2-4.33,1a32.49,32.49,0,0,1-5,.51c-8.36,0-11.54-6.15-11.54-11,0-5.87,4.51-11.32,12.24-11.32a17.56,17.56,0,0,1,4.63.63,11.84,11.84,0,0,1,4,1.88l-2.51,2.39-1.06.24.75-1.21A8.65,8.65,0,0,0,95.62,28c-4.79,0-8.39,3.63-8.39,8.93C87.23,42.65,91.35,48,98,48a9,9,0,0,0,3.85-.76V42.38l-4.57.24,2.42-1.31h6.42l-.78.76a.7.7,0,0,0-.31.49c0,.27-.06,1.15-.06,1.45v3.7Z"/><path class="g" d="M159.49,46.84c-1-.1-1.21-.28-1.21-1.46V28.23c0-.06,0-.13,0-.19.12-1.06.43-1.24,1.37-1.79h-4.34l-2.27,1.09h2.32v0h0v18.7c0,.6-.12.7-.81,1.6h5.36L161,47c-.51-.07-1-.09-1.54-.15Zm12.32.27c-.33.18-.66.4-1,.55a7,7,0,0,1-2.92.57,6.38,6.38,0,0,1-4-1.18,7.76,7.76,0,0,1-3.07-6.34,6.81,6.81,0,0,1,6.89-7,5.87,5.87,0,0,1,3.1.84,4.92,4.92,0,0,1,2.1,3l-7.06,2.86-2.32.18c.75,3.82,3.34,6,6.2,6a7.82,7.82,0,0,0,3.67-1l-1.6,1.5Zm-2.82-9c.57-.21.87-.39.87-.82a3,3,0,0,0-3-2.58c-1.21,0-3.46.93-3.46,4.18,0,.51.06,1,.09,1.6L169,38.15ZM174.72,34v2h-.24V34h-.66v-.2h1.55V34Zm2.7,2v-2h0l-.61,2h-.19l-.61-2h0v2h-.22V33.76h.37l.56,1.77h0l.55-1.77h.38V36Z"/><path class="h" d="M90.07,21H88.56a9.42,9.42,0,0,0-.43-1.76H86A9.27,9.27,0,0,0,85.52,21H84.1c0-.12.37-1.13,1.1-3a24.46,24.46,0,0,0,1.1-3.12h1.78a26.1,26.1,0,0,0,1,3.07A26.05,26.05,0,0,1,90.07,21Zm-2.18-2.66a27,27,0,0,1-.8-2.63H87a26.76,26.76,0,0,1-.84,2.63ZM96.13,21H95a11.41,11.41,0,0,0-1.29-2,10.58,10.58,0,0,1-1.54-2.66h-.08a16.33,16.33,0,0,1,.12,1.87c0,.77,0,1.71.06,2.83H91.09c0-1,.07-2,.07-3.21s0-2.11-.07-2.92h1.39a8.74,8.74,0,0,0,1.17,2,12.21,12.21,0,0,1,1.42,2.51h.07A16.78,16.78,0,0,1,95,17.52c0-.85,0-1.72-.06-2.62h1.17c0,.78-.06,1.75-.06,2.92S96.09,20.07,96.13,21ZM103,17.75a3.45,3.45,0,0,1-.85,2.33,3,3,0,0,1-2.4,1q-.7,0-1.92-.06c0-.94.06-2,.06-3.2s0-2.11-.06-2.92H99.2l.52,0a3.16,3.16,0,0,1,2.47.85,2.93,2.93,0,0,1,.76,2Zm-1.28.21a2.3,2.3,0,0,0-.53-1.53,2,2,0,0,0-1.61-.61,4.39,4.39,0,0,0-.55,0c0,.62,0,1.28,0,2s0,1.5,0,2.23a3.15,3.15,0,0,0,.61.06,1.81,1.81,0,0,0,1.5-.62,2.46,2.46,0,0,0,.49-1.53ZM109.24,21h-1.39A9.84,9.84,0,0,0,107,19a1.09,1.09,0,0,0-.94-.39h-.52c0,.8,0,1.62,0,2.44h-1.31q.06-1.43.06-3.21c0-1.14,0-2.11-.06-2.92h1.4l.83,0c1.44,0,2.16.5,2.16,1.48A1.65,1.65,0,0,1,107.44,18v.07a1.47,1.47,0,0,1,.83.75A15.77,15.77,0,0,1,109.24,21Zm-1.76-4.33c0-.62-.41-.94-1.21-.94a4.52,4.52,0,0,0-.78.07c0,.48.05,1.12.05,1.9H106C107,17.74,107.48,17.39,107.48,16.7Zm8.5,1.15a3.4,3.4,0,0,1-.88,2.4,2.88,2.88,0,0,1-2.19.95,2.78,2.78,0,0,1-2.08-.88A3.06,3.06,0,0,1,110,18.1a3.37,3.37,0,0,1,.89-2.39,2.88,2.88,0,0,1,2.19-1,2.75,2.75,0,0,1,2.07.87,3.06,3.06,0,0,1,.84,2.22Zm-1.3.14a2.41,2.41,0,0,0-.5-1.6,1.53,1.53,0,0,0-1.24-.61,1.44,1.44,0,0,0-1.17.62,2.45,2.45,0,0,0-.48,1.55,2.42,2.42,0,0,0,.51,1.6,1.55,1.55,0,0,0,1.24.61,1.43,1.43,0,0,0,1.16-.62,2.45,2.45,0,0,0,.48-1.55Zm4,3h-1.33q.06-1.46.06-3.21c0-1.14,0-2.11-.06-2.92h1.33c0,.79-.06,1.77-.06,2.92S118.6,20.07,118.64,21Zm6.82-3.28a3.46,3.46,0,0,1-.86,2.33,3,3,0,0,1-2.39,1q-.7,0-1.92-.06c0-.94.06-2,.06-3.2s0-2.11-.06-2.92h1.42l.52,0a3.17,3.17,0,0,1,2.47.85,3,3,0,0,1,.76,2Zm-1.28.21a2.3,2.3,0,0,0-.53-1.53,2,2,0,0,0-1.61-.61,4.53,4.53,0,0,0-.56,0c0,.62,0,1.28,0,2s0,1.5,0,2.23a3.08,3.08,0,0,0,.61.06,1.81,1.81,0,0,0,1.5-.62A2.46,2.46,0,0,0,124.18,18ZM134.51,21H133a9.42,9.42,0,0,0-.43-1.76H130.4A8.49,8.49,0,0,0,130,21h-1.42c0-.12.37-1.13,1.1-3a24.46,24.46,0,0,0,1.1-3.12h1.78a26.1,26.1,0,0,0,1,3.07,28.56,28.56,0,0,1,1,3.06Zm-2.18-2.66a27,27,0,0,1-.8-2.63h-.08c0,.13-.28,1-.83,2.63ZM140,16.51a1.85,1.85,0,0,1-.83,1.66,3.79,3.79,0,0,1-2,.53h-.32q0,.89.06,2.34h-1.33q.06-1.37.06-3.21c0-1.13,0-2.1-.06-2.92H137l.85,0a2.74,2.74,0,0,1,1.52.41,1.37,1.37,0,0,1,.61,1.23Zm-1.21.25c0-.67-.45-1-1.34-1a3.46,3.46,0,0,0-.7.07c0,.59,0,1.26,0,2h.27C138.21,17.85,138.78,17.49,138.78,16.76Zm6.86-.25a1.83,1.83,0,0,1-.84,1.66,3.79,3.79,0,0,1-2.05.53h-.31c0,.59,0,1.37.05,2.34h-1.32q.06-1.37.06-3.21c0-1.13,0-2.1-.06-2.92h1.48l.86,0a2.7,2.7,0,0,1,1.51.41,1.38,1.38,0,0,1,.62,1.23Zm-1.22.25c0-.67-.44-1-1.34-1a3.53,3.53,0,0,0-.7.07c0,.59.05,1.26.05,2h.28C143.85,17.85,144.42,17.49,144.42,16.76Zm10.44,1.09a3.41,3.41,0,0,1-.89,2.4,2.88,2.88,0,0,1-2.18.95,2.78,2.78,0,0,1-2.08-.88,3.06,3.06,0,0,1-.84-2.22,3.37,3.37,0,0,1,.89-2.39,2.86,2.86,0,0,1,2.18-1,2.77,2.77,0,0,1,2.08.87,3.06,3.06,0,0,1,.84,2.22Zm-1.3.14a2.47,2.47,0,0,0-.5-1.6,1.55,1.55,0,0,0-1.24-.61,1.44,1.44,0,0,0-1.17.62,2.45,2.45,0,0,0-.48,1.55,2.42,2.42,0,0,0,.51,1.6,1.53,1.53,0,0,0,1.23.61,1.44,1.44,0,0,0,1.17-.62,2.45,2.45,0,0,0,.48-1.55Zm7.67,3h-1.16a11.41,11.41,0,0,0-1.29-2,10.93,10.93,0,0,1-1.54-2.66h-.08a16.33,16.33,0,0,1,.12,1.87c0,.77,0,1.71.07,2.83h-1.16c0-1,.07-2,.07-3.21s0-2.11-.07-2.92h1.39a8.74,8.74,0,0,0,1.17,2,12.21,12.21,0,0,1,1.42,2.51h.07a16.78,16.78,0,0,1-.12-1.88c0-.85,0-1.72-.06-2.62h1.17c0,.78-.06,1.75-.06,2.92S161.19,20.07,161.23,21Z"/></svg>