<svg xmlns="http://www.w3.org/2000/svg" viewBox="0 0 37 37"><defs><style>.cls-1{fill:#ff2527;}.cls-2{fill:#fff;}</style></defs><title>Asset 9</title><g id="Layer_2" data-name="Layer 2"><g id="Layer_1-2" data-name="Layer 1"><path class="cls-1" d="M37,18.5A18.5,18.5,0,1,1,18.5,0,18.5,18.5,0,0,1,37,18.5"/><path class="cls-2" d="M20.62,18.5,27.14,12A1.5,1.5,0,0,0,25,9.86L18.5,16.38,12,9.86A1.5,1.5,0,0,0,9.86,12l6.52,6.52L9.86,25a1.51,1.51,0,0,0,0,2.12,1.53,1.53,0,0,0,1.06.44A1.49,1.49,0,0,0,12,27.14l6.52-6.52L25,27.14a1.49,1.49,0,0,0,1.06.44,1.53,1.53,0,0,0,1.06-.44,1.51,1.51,0,0,0,0-2.12Z"/></g></g></svg>