<svg xmlns="http://www.w3.org/2000/svg" viewBox="0 0 37 37"><defs><style>.cls-1{fill:#33c932;}.cls-2{fill:#fff;}</style></defs><title>Asset 11</title><g id="Layer_2" data-name="Layer 2"><g id="Layer_1-2" data-name="Layer 1"><path class="cls-1" d="M37,18.5A18.5,18.5,0,1,1,18.5,0,18.5,18.5,0,0,1,37,18.5"/><path class="cls-2" d="M29.25,10.72a1.49,1.49,0,0,0-2.12,0L14.75,23.1,9.87,18.23a1.49,1.49,0,0,0-2.12,0,1.51,1.51,0,0,0,0,2.12l5.94,5.93a1.49,1.49,0,0,0,1.06.44,1.51,1.51,0,0,0,1.06-.44L29.25,12.84A1.49,1.49,0,0,0,29.25,10.72Z"/></g></g></svg>