<svg id="Layer_1" data-name="Layer 1" xmlns="http://www.w3.org/2000/svg" viewBox="0 0 192.69 55.44"><defs><style>.cls-1{fill:#e1141b;}.cls-2{fill:#fff;}</style></defs><title>jio-prime</title><path class="cls-1" d="M165,55.44H27.72A27.72,27.72,0,0,1,0,27.72H0A27.72,27.72,0,0,1,27.72,0H165a27.72,27.72,0,0,1,27.72,27.72h0A27.72,27.72,0,0,1,165,55.44Z"/><path class="cls-2" d="M59.2,31.25a6.75,6.75,0,0,1-1.62,4.88,6.43,6.43,0,0,1-4.82,1.67,7.63,7.63,0,0,1-3.45-.74A5.27,5.27,0,0,1,47.07,35a6.2,6.2,0,0,1-.78-3.16V31.3h4a3.37,3.37,0,0,0,.57,2.17,2.19,2.19,0,0,0,1.77.68A2.23,2.23,0,0,0,54,33.74a1.84,1.84,0,0,0,.64-1,6.37,6.37,0,0,0,.15-1.48V18.09H59.2Z"/><path class="cls-2" d="M66,18.09V37.36H61.63V18.09Z"/><path class="cls-2" d="M85.45,32.89a8.68,8.68,0,0,1-3.32,3.6,10.29,10.29,0,0,1-10,0,8.7,8.7,0,0,1-3.3-3.6,11.13,11.13,0,0,1-1.16-5.1,11.63,11.63,0,0,1,1.14-5.19A8.69,8.69,0,0,1,72.05,19a9.4,9.4,0,0,1,5-1.33,9.5,9.5,0,0,1,5,1.31,8.79,8.79,0,0,1,3.33,3.63,11.38,11.38,0,0,1,1.17,5.21A11.13,11.13,0,0,1,85.45,32.89Zm-5.52.39A5,5,0,0,0,81.66,31a8.67,8.67,0,0,0,.57-3.24,9.15,9.15,0,0,0-.57-3.35,5,5,0,0,0-1.73-2.28,5.22,5.22,0,0,0-5.65,0,5,5,0,0,0-1.71,2.29A9.24,9.24,0,0,0,72,27.79,8.76,8.76,0,0,0,72.57,31a5,5,0,0,0,1.71,2.26,4.72,4.72,0,0,0,2.82.82A4.67,4.67,0,0,0,79.93,33.28Z"/><path class="cls-2" d="M107.1,18.91a5.35,5.35,0,0,1,2.25,2.22,7.2,7.2,0,0,1,0,6.4,5.33,5.33,0,0,1-2.25,2.21,7.73,7.73,0,0,1-3.68.81H99v6.81H94.61V18.09h8.84A7.49,7.49,0,0,1,107.1,18.91ZM105,26.47a2.51,2.51,0,0,0,.88-2.14,2.54,2.54,0,0,0-.85-2.1,4.27,4.27,0,0,0-2.69-.68H99v5.57h3.29A4.62,4.62,0,0,0,105,26.47Z"/><path class="cls-2" d="M124.85,18.78a5.07,5.07,0,0,1,2,1.91,5.24,5.24,0,0,1,.71,2.72,5.89,5.89,0,0,1-.43,2.3A4.61,4.61,0,0,1,126,27.44a3.77,3.77,0,0,1-1.7.91v0a3.43,3.43,0,0,1,1.82,1.05,6.39,6.39,0,0,1,1,2.41q.42,1.68,1,5.5h-4.27c-.24-1.71-.45-3-.64-3.94a9.37,9.37,0,0,0-.53-1.91,3.26,3.26,0,0,0-.55-.87,2.92,2.92,0,0,0-2.12-.73H115.8v7.45h-4.37V18.09h10.45A6.2,6.2,0,0,1,124.85,18.78Zm-2.4,7.38a2.53,2.53,0,0,0,.74-2.05,2.47,2.47,0,0,0-.72-2,3.3,3.3,0,0,0-2.18-.61H115.8v5.27h4.55A3.14,3.14,0,0,0,122.45,26.16Z"/><path class="cls-2" d="M134.07,18.09V37.36h-4.38V18.09Z"/><path class="cls-2" d="M142.66,18.09,147,31.14h.05l4.16-13h6.16V37.36h-4.1V23.83h-.06l-4.6,13.53h-3.37l-4.6-13.42h-.06V37.36h-4.1V18.09Z"/><path class="cls-2" d="M174.33,18.09V21.8H164.18v4h9.32v3.4h-9.32v4.49h10.38v3.71H159.8V18.09Z"/><path class="cls-2" d="M39.22,15.6,38,14.5a2.13,2.13,0,0,0-3,.18L21.22,30.74l-4.77-5.66a2.11,2.11,0,0,0-3-.25l-1.29,1.08a2.12,2.12,0,0,0-.25,3l6.51,7.76s.84,1,1.15,1.37a2.63,2.63,0,0,0,.57.43,2.5,2.5,0,0,0,1.28.17,2.47,2.47,0,0,0,1.71-1l1.95-2.28L39.41,18.6A2.13,2.13,0,0,0,39.22,15.6Z"/></svg>